<svg width="1280" height="640" viewBox="0 0 1280 640" fill="none" xmlns="http://www.w3.org/2000/svg">
  <defs>
    <linearGradient id="bg" x1="87" y1="74" x2="1168" y2="571" gradientUnits="userSpaceOnUse">
      <stop stop-color="#111827"/>
      <stop offset="0.52" stop-color="#0F3D3E"/>
      <stop offset="1" stop-color="#1D4ED8"/>
    </linearGradient>
    <linearGradient id="panel" x1="144" y1="112" x2="1058" y2="528" gradientUnits="userSpaceOnUse">
      <stop stop-color="#09111F" stop-opacity="0.94"/>
      <stop offset="1" stop-color="#0B1730" stop-opacity="0.76"/>
    </linearGradient>
    <linearGradient id="chip" x1="748" y1="219" x2="977" y2="459" gradientUnits="userSpaceOnUse">
      <stop stop-color="#22D3EE"/>
      <stop offset="1" stop-color="#60A5FA"/>
    </linearGradient>
    <filter id="shadow" x="112" y="88" width="1050" height="470" filterUnits="userSpaceOnUse" color-interpolation-filters="sRGB">
      <feFlood flood-opacity="0" result="BackgroundImageFix"/>
      <feColorMatrix in="SourceAlpha" type="matrix" values="0 0 0 0 0 0 0 0 0 0 0 0 0 0 0 0 0 0 127 0" result="hardAlpha"/>
      <feOffset dy="20"/>
      <feGaussianBlur stdDeviation="16"/>
      <feComposite in2="hardAlpha" operator="out"/>
      <feColorMatrix type="matrix" values="0 0 0 0 0.0117647 0 0 0 0 0.0431373 0 0 0 0 0.105882 0 0 0 0.42 0"/>
      <feBlend mode="normal" in2="BackgroundImageFix" result="effect1_dropShadow_0_1"/>
      <feBlend mode="normal" in="SourceGraphic" in2="effect1_dropShadow_0_1" result="shape"/>
    </filter>
  </defs>

  <rect width="1280" height="640" rx="32" fill="url(#bg)"/>
  <circle cx="1098" cy="105" r="94" fill="#22D3EE" fill-opacity="0.08"/>
  <circle cx="168" cy="533" r="132" fill="#F59E0B" fill-opacity="0.08"/>
  <circle cx="1142" cy="520" r="144" fill="#60A5FA" fill-opacity="0.08"/>

  <g opacity="0.22">
    <path d="M74 484C189 430 292 390 422 390C537 390 647 445 761 445C882 445 958 359 1075 333C1132 320 1180 319 1214 327" stroke="#DBF4FF" stroke-width="2"/>
    <path d="M82 530C212 465 326 434 440 438C565 443 642 495 781 495C888 495 972 414 1080 392C1131 382 1174 383 1216 391" stroke="#DBF4FF" stroke-width="2"/>
  </g>

  <g filter="url(#shadow)">
    <rect x="144" y="112" width="992" height="404" rx="30" fill="url(#panel)" stroke="#FFFFFF" stroke-opacity="0.12"/>
  </g>

  <rect x="196" y="162" width="224" height="40" rx="20" fill="#082F49" fill-opacity="0.7" stroke="#67E8F9" stroke-opacity="0.34"/>
  <text x="225" y="188" fill="#BAF6FD" font-family="Segoe UI, Arial, sans-serif" font-size="18" font-weight="700" letter-spacing="1.5">LENOVO FIRMWARE HELPER</text>

  <text x="196" y="256" fill="#E5EEF9" font-family="Segoe UI, Arial, sans-serif" font-size="34" font-weight="600">Decrypt, validate, and stage encrypted Lenovo XML</text>
  <text x="196" y="324" fill="white" font-family="Segoe UI, Arial, sans-serif" font-size="56" font-weight="800">Flash XML Helper for TB351FU</text>
  <text x="196" y="376" fill="#C8D8F3" font-family="Segoe UI, Arial, sans-serif" font-size="23" font-weight="500">Turns encrypted <tspan font-family="Consolas, monospace">.x</tspan> metadata into SP Flash Tool-ready assets</text>
  <text x="196" y="408" fill="#C8D8F3" font-family="Segoe UI, Arial, sans-serif" font-size="23" font-weight="500">and builds a clean staging bundle for Linux flashing workflows.</text>

  <g>
    <rect x="196" y="446" width="118" height="36" rx="18" fill="#0B233F" stroke="#60A5FA" stroke-opacity="0.5"/>
    <text x="227" y="470" fill="#DBEAFE" font-family="Segoe UI, Arial, sans-serif" font-size="17" font-weight="700">TB351FU</text>

    <rect x="326" y="446" width="126" height="36" rx="18" fill="#0B3A36" stroke="#34D399" stroke-opacity="0.5"/>
    <text x="359" y="470" fill="#D1FAE5" font-family="Segoe UI, Arial, sans-serif" font-size="17" font-weight="700">MT6789</text>

    <rect x="464" y="446" width="154" height="36" rx="18" fill="#3E2B08" stroke="#FBBF24" stroke-opacity="0.5"/>
    <text x="498" y="470" fill="#FEF3C7" font-family="Segoe UI, Arial, sans-serif" font-size="17" font-weight="700">SP FLASH XML</text>
  </g>

  <g>
    <rect x="768" y="162" width="286" height="308" rx="28" fill="#07111E" stroke="#93C5FD" stroke-opacity="0.26" stroke-width="3"/>
    <rect x="807" y="197" width="208" height="236" rx="20" fill="#0A1E35" stroke="#60A5FA" stroke-opacity="0.36" stroke-width="2"/>

    <rect x="836" y="226" width="150" height="26" rx="8" fill="#113053"/>
    <rect x="836" y="270" width="120" height="14" rx="7" fill="#1E4F84"/>
    <rect x="836" y="295" width="152" height="14" rx="7" fill="#1E4F84"/>
    <rect x="836" y="320" width="96" height="14" rx="7" fill="#1E4F84"/>
    <rect x="836" y="358" width="162" height="42" rx="12" fill="#0E7490" fill-opacity="0.24" stroke="#67E8F9" stroke-opacity="0.38"/>
    <text x="859" y="385" fill="#B7F6FD" font-family="Consolas, monospace" font-size="18" font-weight="700">flash.xml</text>
  </g>

  <g>
    <rect x="714" y="241" width="116" height="116" rx="24" fill="#081625" stroke="url(#chip)" stroke-width="3"/>
    <path d="M756 229V205" stroke="#67E8F9" stroke-width="6" stroke-linecap="round"/>
    <path d="M788 229V205" stroke="#67E8F9" stroke-width="6" stroke-linecap="round"/>
    <path d="M724 273H700" stroke="#67E8F9" stroke-width="6" stroke-linecap="round"/>
    <path d="M724 305H700" stroke="#67E8F9" stroke-width="6" stroke-linecap="round"/>
    <path d="M820 273H844" stroke="#67E8F9" stroke-width="6" stroke-linecap="round"/>
    <path d="M820 305H844" stroke="#67E8F9" stroke-width="6" stroke-linecap="round"/>
    <path d="M756 393V369" stroke="#67E8F9" stroke-width="6" stroke-linecap="round"/>
    <path d="M788 393V369" stroke="#67E8F9" stroke-width="6" stroke-linecap="round"/>
    <rect x="746" y="273" width="52" height="32" rx="10" fill="#67E8F9"/>
    <text x="760" y="294" fill="#081625" font-family="Consolas, monospace" font-size="16" font-weight="800">.x</text>
  </g>
</svg>
